<svg width="29" height="29" viewBox="0 0 29 29" fill="none" xmlns="http://www.w3.org/2000/svg">
<path d="M20.1443 18.8502C21.9418 16.945 23.0091 14.4977 23.167 11.919C23.3249 9.34041 22.5637 6.78759 21.0113 4.68928C19.4589 2.59096 17.2098 1.07495 14.6417 0.395819C12.0737 -0.283309 9.34305 -0.0841877 6.90839 0.959742C4.47373 2.00367 2.48333 3.82883 1.27145 6.12872C0.0595582 8.42861 -0.300012 11.0632 0.25312 13.5899C0.806251 16.1167 2.23839 18.3818 4.30905 20.0049C6.37971 21.628 8.96276 22.5102 11.6244 22.5033C14.1365 22.5067 16.5808 21.7122 18.584 20.2411L27.2255 28.6915C27.3208 28.7879 27.435 28.8649 27.5614 28.9178C27.6879 28.9708 27.8239 28.9987 27.9616 29C28.0995 29.0004 28.2361 28.9733 28.3627 28.9202C28.4894 28.8671 28.6034 28.7893 28.6977 28.6915C28.8917 28.4957 29 28.2347 29 27.963C29 27.6914 28.8917 27.4304 28.6977 27.2346L20.1443 18.8502ZM2.10636 11.138C2.12067 9.31384 2.69113 7.53461 3.74583 6.02462C4.80053 4.51463 6.29224 3.34149 8.03293 2.65306C9.77361 1.96464 11.6853 1.79176 13.5271 2.15622C15.3689 2.52067 17.0583 3.40616 18.3823 4.70104C19.7063 5.99591 20.6056 7.64222 20.967 9.43242C21.3283 11.2226 21.1354 13.0766 20.4127 14.7606C19.69 16.4445 18.4697 17.8832 16.9057 18.8951C15.3418 19.907 13.5041 20.4469 11.6244 20.4468C9.09106 20.435 6.66598 19.4482 4.8815 17.703C3.09701 15.9578 2.09894 13.5967 2.10636 11.138V11.138Z" fill="#E8E8E8"/>
</svg>
